HIERARCHY
ROOT root
{
	OFFSET	0	13.1	24.9
	CHANNELS 6  Xposition Yposition Zposition Xrotation Yrotation Zrotation
	JOINT spine_1
	{
		OFFSET	0	9.99999	0
		CHANNELS 3  Xrotation Yrotation Zrotation
		JOINT spine_2
		{
			OFFSET	0	112	-10
			CHANNELS 3  Xrotation Yrotation Zrotation
			JOINT spine_3
			{
				OFFSET	0	206.5	19.3
				CHANNELS 3  Xrotation Yrotation Zrotation
				JOINT spine_4
				{
					OFFSET	0	110.4	14.6
					CHANNELS 3  Xrotation Yrotation Zrotation
					JOINT neck_1
					{
						OFFSET	0	71.8	-50.3
						CHANNELS 3  Xrotation Yrotation Zrotation
						JOINT neck_2
						{
							OFFSET	0	86.2	-25.8
							CHANNELS 3  Xrotation Yrotation Zrotation
							JOINT head_ee
							{
								OFFSET	0	179.8	-8.7
								CHANNELS 3  Xrotation Yrotation Zrotation
								End Site
								{
									OFFSET	1	0	0
								}
							}
						}
					}
					JOINT left_clavicle
					{
						OFFSET	-43.2	22.4	-70.8
						CHANNELS 3  Xrotation Yrotation Zrotation
						JOINT left_shoulder
						{
							OFFSET	-93.9	-5.79999	48.7
							CHANNELS 3  Xrotation Yrotation Zrotation
							JOINT left_elbow
							{
								OFFSET	-291.4	-30.8	15.2
								CHANNELS 3  Xrotation Yrotation Zrotation
								JOINT left_lowarm_twist
								{
									OFFSET	-110.7	-3.89999	13.6
									CHANNELS 3  Xrotation Yrotation Zrotation
									JOINT left_hand
									{
										OFFSET	-110.7	-3.89999	13.6
										CHANNELS 3  Xrotation Yrotation Zrotation
										JOINT left_ee
										{
											OFFSET	-80.8	-5.10001	12.1
											CHANNELS 3  Xrotation Yrotation Zrotation
											End Site
											{
												OFFSET	1	0	0
											}
										}
									}
								}
							}
						}
					}
					JOINT right_clavicle
					{
						OFFSET	43.2	22.4	-70.8
						CHANNELS 3  Xrotation Yrotation Zrotation
						JOINT right_shoulder
						{
							OFFSET	93.9	-5.79999	48.7
							CHANNELS 3  Xrotation Yrotation Zrotation
							JOINT right_elbow
							{
								OFFSET	291.4	-30.8	15.2
								CHANNELS 3  Xrotation Yrotation Zrotation
								JOINT right_lowarm_twist
								{
									OFFSET	110.7	-3.89999	13.6
									CHANNELS 3  Xrotation Yrotation Zrotation
									JOINT right_hand
									{
										OFFSET	110.7	-3.89999	13.6
										CHANNELS 3  Xrotation Yrotation Zrotation
										JOINT right_ee
										{
											OFFSET	80.8	-5.10001	12.1
											CHANNELS 3  Xrotation Yrotation Zrotation
											End Site
											{
												OFFSET	1	0	0
											}
										}
									}
								}
							}
						}
					}
				}
			}
		}
	}
	JOINT left_hip
	{
		OFFSET	-82.8	-127.5	0.300001
		CHANNELS 3  Xrotation Yrotation Zrotation
		JOINT left_knee
		{
			OFFSET	-28.2	-396.7	2.2
			CHANNELS 3  Xrotation Yrotation Zrotation
			JOINT left_ankle
			{
				OFFSET	-11.7	-411.3	35.4
				CHANNELS 3  Xrotation Yrotation Zrotation
				JOINT left_toes
				{
					OFFSET	0	-60	-88.6
					CHANNELS 3  Xrotation Yrotation Zrotation
					JOINT left_foot_ee
					{
						OFFSET	-22.5	-16.5	-42.2
						CHANNELS 3  Xrotation Yrotation Zrotation
						End Site
						{
							OFFSET	1	0	0
						}
					}
				}
			}
		}
	}
	JOINT right_hip
	{
		OFFSET	82.8	-127.5	0.300001
		CHANNELS 3  Xrotation Yrotation Zrotation
		JOINT right_knee
		{
			OFFSET	28.2	-396.7	2.2
			CHANNELS 3  Xrotation Yrotation Zrotation
			JOINT right_ankle
			{
				OFFSET	11.7	-411.3	35.4
				CHANNELS 3  Xrotation Yrotation Zrotation
				JOINT right_toes
				{
					OFFSET	0	-60	-88.6
					CHANNELS 3  Xrotation Yrotation Zrotation
					JOINT right_foot_ee
					{
						OFFSET	22.5	-16.5	-42.2
						CHANNELS 3  Xrotation Yrotation Zrotation
						End Site
						{
							OFFSET	1	0	0
						}
					}
				}
			}
		}
	}
}
MOTION
Frames: 13
Frame Time: 0.02
2613.03 704.646 -1469.96 17.7927 66.3317 -22.818 -3.1981 0.59174 3.95257 -3.18948 0.339233 3.98215 -3.15397 -0.723516 3.93062 -3.17551 -0.0941859 3.99544 -17.421 18.4623 -5.20402 -19.4001 38.2609 2.94704 -0.0 0.0 -0.0 -1.10155 8.94174 -0.866686 13.3381 -20.5633 57.0483 7.19224 -74.283 5.4507 3.16019 0.100576 -0.391063 -0.168296 7.35553 1.96926 -0.0 0.0 -0.0 13.9536 26.265 -27.8616 -17.4219 26.5772 -60.1209 0.327847 9.22482 -0.0264494 39.0614 0.301345 4.8854 1.41838 -29.4196 -19.4191 0.0 0.0 0.0 -17.2089 0.850424 16.4186 -18.3575 0.31157 2.78786 38.0363 19.5478 -4.8331 -25.8506 0.0 0.0 -0.0 0.0 -0.0 24.7907 15.8173 -6.44877 -3.78748 -0.137308 -0.564939 2.37242 -18.0239 0.350145 -10.3507 0.0 0.0 0.0 0.0 0.0 
2595.94 703.279 -1472.3 18.6622 66.7456 -23.7648 -3.34803 0.618397 4.09993 -3.33875 0.356483 4.1309 -3.29983 -0.756582 4.07673 -3.32301 -0.10382 4.14493 -16.8358 18.4392 -5.27461 -18.6936 38.2785 2.62695 -0.0 0.0 -0.0 -1.2224 8.55717 -1.1343 12.2687 -21.1841 57.6784 6.84605 -73.5342 5.11806 3.29909 0.1045 -0.408371 -0.144032 7.59147 2.22481 -0.0 0.0 -0.0 13.8291 26.5398 -27.5361 -16.2893 27.0671 -60.6998 0.344319 9.67974 -0.0291547 39.0051 0.298528 4.87877 1.40929 -29.3414 -19.347 0.0 0.0 0.0 -18.5451 0.53663 16.6796 -18.5147 0.310358 2.81194 38.8701 19.4058 -4.90955 -25.6099 0.0 0.0 -0.0 0.0 -0.0 25.1494 15.843 -6.56149 -6.44417 -0.211182 -0.965924 1.07504 -17.9052 0.15911 -10.577 0.0 0.0 0.0 0.0 0.0 
2577.64 703.59 -1477.15 17.7593 67.3743 -22.9075 -3.35928 0.699866 4.13512 -3.34988 0.435555 4.17118 -3.30441 -0.691254 4.13656 -3.32828 -0.0298844 4.19372 -16.2971 18.394 -5.62899 -18.0463 38.4083 2.05438 -0.0 0.0 -0.0 -1.60937 8.93709 -1.75768 11.218 -21.8114 58.4729 6.35225 -72.3367 4.64598 3.26201 0.103456 -0.40375 -0.0673805 7.9062 2.85223 -0.0 0.0 -0.0 13.7138 26.6907 -27.2483 -14.4176 28.0203 -60.9942 0.360077 10.1138 -0.031863 38.9022 0.293399 4.86666 1.37769 -29.3836 -19.1763 0.0 0.0 0.0 -19.1934 -0.229723 16.7233 -18.8328 0.307701 2.86068 37.7216 19.5005 -4.80171 -25.7248 0.0 0.0 -0.0 0.0 -0.0 25.0641 15.8406 -6.75014 -8.39029 -0.253453 -1.26156 -0.529381 -17.6835 -0.0785883 -10.7503 0.0 0.0 0.0 0.0 0.0 
2561.05 702.777 -1481.58 17.7243 67.1979 -23.0604 -3.27033 0.806563 4.08129 -3.26123 0.545452 4.12424 -3.20837 -0.565598 4.12153 -3.23206 0.0918353 4.15908 -15.5649 18.0643 -6.65385 -17.1171 38.3884 0.639874 -0.0 0.0 -0.0 -1.80249 9.54723 -1.99978 9.50595 -22.1207 59.0598 5.87413 -71.0039 4.19208 3.05595 0.0976034 -0.378079 -0.0111201 8.0873 3.29141 -0.0 0.0 -0.0 13.4322 26.9385 -26.5624 -12.7298 28.6547 -61.0198 0.380698 10.68 -0.0355845 38.9149 0.294032 4.86816 1.39666 -29.3707 -19.2819 0.0 0.0 0.0 -19.8555 0.0726083 16.7385 -19.1958 0.304341 2.91627 37.9587 18.4261 -4.80272 -25.6278 0.0 0.0 -0.0 0.0 -0.0 24.8499 15.867 -6.55779 -9.9012 -0.279331 -1.49196 -1.56857 -17.7751 -0.233444 -10.8752 0.0 0.0 0.0 0.0 0.0 
2545.48 710.459 -1484.16 18.4757 67.676 -23.7991 -3.2436 0.568286 4.10604 -3.23428 0.306085 4.13381 -3.19939 -0.798918 4.06752 -3.22244 -0.147079 4.1425 -14.1128 17.4139 -8.74528 -15.2558 38.4507 -2.22663 -0.0 0.0 -0.0 -1.50979 8.95248 -1.58062 7.22138 -22.3652 58.9747 4.54754 -66.0414 2.95644 3.88185 0.120505 -0.481092 0.0885075 6.16019 3.15039 -0.0 0.0 -0.0 13.3854 26.5256 -26.5058 -12.3918 29.6432 -60.6195 0.385531 10.8124 -0.0364856 38.4063 0.268977 4.80814 1.39571 -29.0137 -19.1846 0.0 0.0 0.0 -20.6352 -0.166825 15.8929 -18.2119 0.312634 2.76554 37.0912 18.3131 -4.71676 -27.094 0.0 0.0 -0.0 0.0 -0.0 24.849 16.2327 -5.94367 -13.9782 -0.318762 -2.11615 -1.53044 -14.6685 -0.226076 -10.7778 0.0 0.0 0.0 0.0 0.0 
2521.91 711.843 -1487.48 18.1434 69.0009 -23.7637 -2.97115 0.456725 4.26869 -2.96103 0.184427 4.28905 -2.93463 -0.938371 4.18938 -2.95901 -0.265596 4.2848 -13.4859 16.8206 -10.3552 -14.3788 38.3409 -4.27783 -0.0 0.0 -0.0 -1.30284 10.496 -0.990139 6.24808 -21.6756 60.2135 3.92554 -62.7681 2.39525 2.5987 0.0842857 -0.321191 0.0886428 4.97228 2.66255 -0.0 0.0 -0.0 13.2859 26.0271 -26.3357 -12.8603 29.9568 -61.0172 0.481986 13.4288 -0.0567437 37.7817 0.238939 4.73413 1.356 -28.7726 -18.8927 0.0 0.0 0.0 -20.9385 -0.19365 15.6301 -18.6609 0.309171 2.83434 35.898 16.7186 -4.57204 -26.9924 0.0 0.0 -0.0 0.0 -0.0 23.069 16.6919 -4.83141 -12.7355 -0.311451 -1.92562 -1.37824 -11.6336 -0.202645 -11.5716 0.0 0.0 0.0 0.0 0.0 
2495.67 717.482 -1489.08 19.4961 69.0555 -25.8267 -2.78636 0.451109 4.25886 -2.77629 0.179446 4.27889 -2.75083 -0.927109 4.18127 -2.77513 -0.255753 4.27501 -11.9678 16.024 -12.1769 -12.3782 38.1032 -6.99328 -0.0 0.0 -0.0 -1.26553 11.5525 -0.770838 3.70783 -20.812 61.2121 3.4022 -59.3032 1.93716 1.82642 0.0607622 -0.225351 0.0601634 4.46494 2.26549 -0.0 0.0 -0.0 13.4182 25.6238 -26.6906 -12.7242 30.331 -60.7016 0.568237 15.7214 -0.0784528 37.371 0.219629 4.68529 1.33522 -28.5619 -18.7171 0.0 0.0 0.0 -19.6199 0.415312 14.9056 -18.3913 0.311315 2.79304 35.5561 14.9229 -4.51247 -27.1258 0.0 0.0 -0.0 0.0 -0.0 20.0253 16.9584 -3.59115 -11.755 -0.302768 -1.77543 -0.973279 -7.53195 -0.142773 -12.4325 0.0 0.0 0.0 0.0 0.0 
2475.17 725.226 -1489.28 19.7271 69.877 -26.2757 -2.64215 0.468782 4.37354 -2.63153 0.189807 4.39445 -2.60463 -0.935903 4.29801 -2.63031 -0.246054 4.39166 -11.0697 15.4846 -13.4636 -11.166 38.0059 -8.8364 -0.0 0.0 -0.0 -1.09461 12.518 -0.343836 2.3132 -20.2755 62.1352 3.05283 -56.5135 1.64109 1.23942 0.0420179 -0.152718 0.0458602 4.12231 2.02921 -0.0 0.0 -0.0 13.3025 25.3165 -26.457 -12.6616 30.5419 -60.7638 0.617126 16.9988 -0.0922245 37.0843 0.206361 4.65113 1.3181 -28.4679 -18.5932 0.0 0.0 0.0 -18.8499 0.584624 14.5329 -18.7284 0.308603 2.84468 34.805 13.7839 -4.42424 -27.28 0.0 0.0 -0.0 0.0 -0.0 17.7294 17.1513 -2.62899 -10.8355 -0.292289 -1.63473 -0.839061 -5.34966 -0.12321 -12.9289 0.0 0.0 0.0 0.0 0.0 
2455.49 731.427 -1491.58 18.8409 70.4554 -25.3826 -2.52512 0.492056 4.37169 -2.51451 0.213151 4.39408 -2.48605 -0.904249 4.30548 -2.51185 -0.213617 4.39406 -10.3426 15.1715 -14.48 -10.1857 38.1659 -10.2733 -0.0 0.0 -0.0 -0.984916 14.0235 0.0501964 0.628305 -19.7557 62.4957 2.8265 -54.4553 1.45457 0.813601 0.0279552 -0.100149 0.0360778 3.69005 1.7851 -0.0 0.0 -0.0 13.1945 25.1611 -26.2239 -12.3404 30.8171 -60.6153 0.699289 19.1065 -0.11769 36.9782 0.201491 4.63846 1.35965 -28.2633 -18.7795 0.0 0.0 0.0 -18.7978 0.765984 13.9482 -19.6029 0.300151 2.9786 34.3406 12.4778 -4.3647 -27.3965 0.0 0.0 -0.0 0.0 -0.0 16.0036 17.2796 -1.80646 -10.5796 -0.288971 -1.5956 -1.32535 -1.70155 -0.195912 -13.4922 0.0 0.0 0.0 0.0 0.0 
2427.71 732.527 -1496.34 19.6598 70.8441 -26.5251 -2.53518 0.615766 4.43557 -2.5243 0.332559 4.46568 -2.48545 -0.806485 4.40494 -2.5125 -0.101413 4.47687 -9.92031 14.9139 -14.4403 -9.66536 37.7064 -10.4867 -0.0 0.0 -0.0 -1.1795 16.7779 0.13352 -0.532654 -19.0675 63.2117 2.68708 -53.0746 1.3421 0.337353 0.011764 -0.0414786 0.174393 1.96562 1.98449 -0.0 0.0 -0.0 12.9404 24.085 -25.7505 -13.6917 30.5389 -61.1786 0.911161 24.2923 -0.196108 37.438 0.222756 4.69327 1.46917 -28.248 -19.4127 0.0 0.0 0.0 -18.1543 2.25997 13.4731 -22.5274 0.257062 3.42523 34.3002 11.2696 -4.35071 -27.4394 0.0 0.0 -0.0 0.0 -0.0 14.0165 16.7836 -1.06953 -10.4956 -0.287844 -1.58277 -0.161098 0.998411 -0.0239067 -12.7134 0.0 0.0 0.0 0.0 0.0 
2416.05 732.696 -1502.28 20.062 70.5063 -26.9254 -2.49159 0.76472 4.51418 -2.48039 0.476227 4.55358 -2.42878 -0.68484 4.52697 -2.45737 0.0379264 4.57821 -10.4918 14.7943 -14.0295 -10.3801 37.1471 -9.86162 -0.0 0.0 -0.0 -1.57548 18.0325 -0.28771 -1.56279 -18.3635 63.2397 2.39757 -49.896 1.11548 0.0714528 0.00251222 -0.00877959 0.207811 2.81994 2.56043 -0.0 0.0 -0.0 12.8329 24.0757 -25.5026 -14.4703 31.1972 -61.3796 1.12205 29.0658 -0.290878 37.3894 0.220489 4.68749 1.70066 -28.2275 -20.7658 0.0 0.0 0.0 -19.014 3.13383 12.9852 -25.8036 0.181791 3.92228 34.2144 10.1683 -4.33481 -26.8628 0.0 0.0 -0.0 0.0 -0.0 12.71 17.1293 -1.33111 -9.7642 -0.277235 -1.47104 -0.362713 2.50398 -0.0541078 -12.6373 0.0 0.0 0.0 0.0 0.0 
2393.12 743.482 -1511.84 21.4934 69.7569 -27.7405 -2.66886 0.83064 4.55475 -2.65748 0.539441 4.59824 -2.59942 -0.648415 4.58418 -2.62873 0.082903 4.62897 -9.81351 15.2648 -14.0561 -9.58789 38.1156 -10.0406 -0.0 0.0 -0.0 -2.61596 20.8694 -1.35091 -3.36314 -17.8818 63.497 2.3579 -49.4247 1.08525 0.32067 0.0111882 -0.0394256 0.60304 3.2276 5.34915 -0.0 0.0 -0.0 12.7261 22.5629 -25.4013 -13.1494 30.3718 -61.4716 1.29731 32.7253 -0.380917 37.2071 0.212023 4.66577 1.50925 -27.9917 -19.5808 0.0 0.0 0.0 -16.8319 5.01363 11.1955 -29.0907 0.077819 4.41598 29.3028 12.4629 -3.83574 -28.971 0.0 0.0 -0.0 0.0 -0.0 9.19915 16.2086 -1.86587 -7.98245 -0.245427 -1.19949 -0.0677953 4.88835 -0.0101966 -13.0513 0.0 0.0 0.0 0.0 0.0 
2378.63 743.398 -1516.74 22.5531 70.0099 -28.3386 -2.53858 0.830654 4.60157 -2.52697 0.536485 4.64497 -2.46885 -0.652635 4.63011 -2.49875 0.0859665 4.67499 -10.6852 15.3212 -14.132 -10.6389 38.1777 -9.72701 -0.0 0.0 -0.0 -2.9846 22.2183 -1.6201 -4.11366 -16.8484 63.2356 2.31435 -48.8965 1.0523 0.343461 0.0119751 -0.0422301 0.723165 2.47224 5.8429 -0.0 0.0 -0.0 12.6157 22.1499 -25.1827 -12.4228 30.6783 -61.3613 1.46034 35.8801 -0.472828 37.6831 0.234273 4.72242 1.63781 -27.9949 -20.3374 0.0 0.0 0.0 -16.4867 6.31306 9.66071 -31.1465 -0.00155237 4.72147 27.3773 11.9856 -3.6183 -30.0129 0.0 0.0 -0.0 0.0 -0.0 6.99488 14.9871 -2.00938 -5.59489 -0.18959 -0.83738 -0.519833 7.59721 -0.0792491 -12.6697 0.0 0.0 0.0 0.0 0.0 
